<svg width="522.8" height="71.503" viewBox="0 0 522.8 71.503" xmlns="http://www.w3.org/2000/svg"><g id="svgGroup" stroke-linecap="round" fill-rule="evenodd" font-size="9pt" stroke="#201568" stroke-width="0.25mm" fill="#201568" style="stroke:#201568;stroke-width:0.25mm;fill:#201568"><path d="M 60.3 1.002 L 76.1 1.002 L 76.1 70.802 L 62.1 70.802 L 62.1 25.402 L 43.4 70.802 L 32.8 70.802 L 14 25.402 L 14 70.802 L 0 70.802 L 0 1.002 L 15.9 1.002 L 38.1 52.902 L 60.3 1.002 Z M 213.8 1.002 L 229.6 1.002 L 229.6 70.802 L 215.6 70.802 L 215.6 25.402 L 196.9 70.802 L 186.3 70.802 L 167.5 25.402 L 167.5 70.802 L 153.5 70.802 L 153.5 1.002 L 169.4 1.002 L 191.6 52.902 L 213.8 1.002 Z M 472.2 50.702 L 487.2 50.702 A 11.812 11.812 0 0 0 487.808 53.786 A 8.907 8.907 0 0 0 490.25 57.502 Q 493 60.002 497.8 60.002 A 16.492 16.492 0 0 0 500.888 59.73 Q 502.658 59.392 504.053 58.634 A 8.72 8.72 0 0 0 505.5 57.652 A 7.553 7.553 0 0 0 508.279 52.144 A 9.832 9.832 0 0 0 508.3 51.502 A 8.284 8.284 0 0 0 507.962 49.082 A 6.649 6.649 0 0 0 506.4 46.402 A 12.79 12.79 0 0 0 502.934 43.837 A 15.528 15.528 0 0 0 501.65 43.252 A 44.589 44.589 0 0 0 499.659 42.508 Q 497.238 41.664 493.8 40.702 Q 489.231 39.358 485.814 38.037 A 54.445 54.445 0 0 1 482.75 36.752 A 19.203 19.203 0 0 1 475.842 31.345 A 22.569 22.569 0 0 1 475.45 30.852 A 13.807 13.807 0 0 1 473.076 25.928 Q 472.548 23.959 472.432 21.633 A 26.854 26.854 0 0 1 472.4 20.302 A 20.893 20.893 0 0 1 473.199 14.417 A 17.547 17.547 0 0 1 475.5 9.502 A 19.175 19.175 0 0 1 482.43 3.313 A 23.793 23.793 0 0 1 484.2 2.452 A 28.856 28.856 0 0 1 491.825 0.346 A 37.525 37.525 0 0 1 497 0.002 A 44.244 44.244 0 0 1 497.169 0.002 Q 507.853 0.043 514.55 5.252 Q 521.3 10.502 522 19.902 L 506.6 19.902 A 7.955 7.955 0 0 0 503.811 14.175 A 10.059 10.059 0 0 0 503.55 13.952 A 9.855 9.855 0 0 0 499.636 12.02 Q 498.19 11.654 496.491 11.608 A 18.226 18.226 0 0 0 496 11.602 Q 491.9 11.602 489.45 13.702 A 6.766 6.766 0 0 0 487.264 17.381 A 10.445 10.445 0 0 0 487 19.802 A 6.951 6.951 0 0 0 487.4 22.2 A 6.126 6.126 0 0 0 488.85 24.452 Q 490.7 26.302 493.45 27.452 A 45.219 45.219 0 0 0 495.388 28.205 Q 497.763 29.07 501.2 30.102 Q 506.094 31.541 509.693 32.981 A 51.846 51.846 0 0 1 512.3 34.102 Q 516.6 36.102 519.7 40.102 A 14.135 14.135 0 0 1 522.207 45.393 Q 522.717 47.425 522.788 49.811 A 26.311 26.311 0 0 1 522.8 50.602 Q 522.8 56.202 519.9 61.002 A 19.646 19.646 0 0 1 513.721 67.311 A 24.71 24.71 0 0 1 511.4 68.652 Q 505.8 71.502 498.1 71.502 A 36.666 36.666 0 0 1 490.549 70.754 A 29.805 29.805 0 0 1 484.95 69.002 A 23.121 23.121 0 0 1 479.005 65.376 A 20.292 20.292 0 0 1 475.7 61.802 Q 472.3 57.102 472.2 50.702 Z M 461.3 12.302 L 434.8 12.302 L 434.8 29.802 L 458.3 29.802 L 458.3 40.902 L 434.8 40.902 L 434.8 59.402 L 461.3 59.402 L 461.3 70.802 L 420.8 70.802 L 420.8 0.902 L 461.3 0.902 L 461.3 12.302 Z M 369.7 1.002 L 384.6 1.002 L 359 70.802 L 342 70.802 L 316.4 1.002 L 331.4 1.002 L 350.6 56.502 L 369.7 1.002 Z M 129.8 1.002 L 145.4 1.002 L 121.8 46.502 L 121.8 70.802 L 107.8 70.802 L 107.8 46.502 L 84.1 1.002 L 99.9 1.002 L 114.9 32.902 L 129.8 1.002 Z M 275.8 71.502 Q 266 71.502 257.8 66.902 Q 249.6 62.302 244.8 54.152 A 34.952 34.952 0 0 1 240.085 38.4 A 42.463 42.463 0 0 1 240 35.702 A 37.191 37.191 0 0 1 241.922 23.613 A 33.842 33.842 0 0 1 244.8 17.352 Q 249.6 9.202 257.8 4.602 Q 266 0.002 275.8 0.002 A 36.781 36.781 0 0 1 289.934 2.698 A 35.241 35.241 0 0 1 293.85 4.602 Q 302 9.202 306.75 17.352 A 35.206 35.206 0 0 1 311.443 33.495 A 42.426 42.426 0 0 1 311.5 35.702 A 38.256 38.256 0 0 1 309.825 47.175 A 33.888 33.888 0 0 1 306.75 54.152 Q 302 62.302 293.8 66.902 Q 285.6 71.502 275.8 71.502 Z M 393 1.002 L 407 1.002 L 407 70.802 L 393 70.802 L 393 1.002 Z M 275.8 59.002 A 23.653 23.653 0 0 0 281.898 58.244 A 19.622 19.622 0 0 0 286.9 56.152 A 19.377 19.377 0 0 0 294.054 48.655 A 23.272 23.272 0 0 0 294.4 48.002 A 24.474 24.474 0 0 0 296.751 40.513 A 32.032 32.032 0 0 0 297.1 35.702 A 30.76 30.76 0 0 0 296.507 29.524 A 23.526 23.526 0 0 0 294.4 23.452 A 19.936 19.936 0 0 0 289.856 17.531 A 18.765 18.765 0 0 0 286.9 15.402 A 20.549 20.549 0 0 0 278.903 12.782 A 26.006 26.006 0 0 0 275.8 12.602 Q 269.5 12.602 264.65 15.402 A 19.138 19.138 0 0 0 257.185 23.288 A 22.877 22.877 0 0 0 257.1 23.452 A 24.004 24.004 0 0 0 254.78 30.698 A 31.734 31.734 0 0 0 254.4 35.702 A 30.772 30.772 0 0 0 255.033 42.084 A 23.86 23.86 0 0 0 257.1 48.002 A 19.98 19.98 0 0 0 261.894 54.187 A 19.058 19.058 0 0 0 264.65 56.152 A 20.73 20.73 0 0 0 273.101 58.864 A 25.908 25.908 0 0 0 275.8 59.002 Z" vector-effect="non-scaling-stroke"/></g></svg>