<?xml version="1.0" encoding="UTF-8" standalone="no"?>
<svg
   xmlns:dc="http://purl.org/dc/elements/1.1/"
   xmlns:cc="http://creativecommons.org/ns#"
   xmlns:rdf="http://www.w3.org/1999/02/22-rdf-syntax-ns#"
   xmlns:svg="http://www.w3.org/2000/svg"
   xmlns="http://www.w3.org/2000/svg"
   xmlns:sodipodi="http://sodipodi.sourceforge.net/DTD/sodipodi-0.dtd"
   xmlns:inkscape="http://www.inkscape.org/namespaces/inkscape"
   version="1.1"
   id="Layer_1"
   x="0px"
   y="0px"
   width="100"
   height="13"
   viewBox="0 0 100 13"
   enable-background="new 0 0 584 149"
   xml:space="preserve"
   inkscape:version="0.92.4 (5da689c313, 2019-01-14)"
   sodipodi:docname="Ookla logo.svg"><title
     id="title857">Speedtest.net logo</title><metadata
     id="metadata8"><rdf:RDF><cc:Work
         rdf:about=""><dc:format>image/svg+xml</dc:format><dc:type
           rdf:resource="http://purl.org/dc/dcmitype/StillImage" /><dc:title>Speedtest.net logo</dc:title><cc:license
           rdf:resource="http://scripts.sil.org/OFL" /></cc:Work><cc:License
         rdf:about="http://scripts.sil.org/OFL"><cc:permits
           rdf:resource="http://scripts.sil.org/pub/OFL/Reproduction" /><cc:permits
           rdf:resource="http://scripts.sil.org/pub/OFL/Distribution" /><cc:permits
           rdf:resource="http://scripts.sil.org/pub/OFL/Embedding" /><cc:permits
           rdf:resource="http://scripts.sil.org/pub/OFL/DerivativeWorks" /><cc:requires
           rdf:resource="http://scripts.sil.org/pub/OFL/Notice" /><cc:requires
           rdf:resource="http://scripts.sil.org/pub/OFL/Attribution" /><cc:requires
           rdf:resource="http://scripts.sil.org/pub/OFL/ShareAlike" /><cc:requires
           rdf:resource="http://scripts.sil.org/pub/OFL/DerivativeRenaming" /><cc:requires
           rdf:resource="http://scripts.sil.org/pub/OFL/BundlingWhenSelling" /></cc:License></rdf:RDF></metadata><defs
     id="defs6" /><sodipodi:namedview
     pagecolor="#ffffff"
     bordercolor="#666666"
     borderopacity="1"
     objecttolerance="1"
     gridtolerance="1"
     guidetolerance="1"
     inkscape:pageopacity="0"
     inkscape:pageshadow="2"
     inkscape:window-width="1366"
     inkscape:window-height="705"
     id="namedview4"
     showgrid="false"
     inkscape:showpageshadow="false"
     inkscape:zoom="1"
     inkscape:cx="78.736992"
     inkscape:cy="12.612086"
     inkscape:window-x="-8"
     inkscape:window-y="-8"
     inkscape:window-maximized="1"
     inkscape:current-layer="Layer_1"><inkscape:grid
       type="xygrid"
       id="grid4166" /></sodipodi:namedview><g
     id="layer103-2"
     transform="matrix(0.79031136,0,0,1.094549,-7913.6229,-903.15497)"
     style="display:inline;fill:#00ff00;fill-opacity:1;stroke:none" /><path
     inkscape:connector-curvature="0"
     style="fill:#000000;fill-opacity:1;fill-rule:evenodd;stroke:none;stroke-width:0.05488099"
     d="m 7.4422735,0.409063 c -3.8729512,0 -6.88477762,3.13494 -6.88477762,6.945876 0,1.598684 0.55326222,3.197055 1.59819352,4.426386 L 2.5857863,12.272522 3.3848853,11.47423 3.0777889,11.043326 C 2.2172535,9.997847 1.7866916,8.707207 1.7866916,7.354939 c 0,-3.196818 2.5823137,-5.778583 5.7785823,-5.778583 3.1962681,0 5.7785821,2.581765 5.7785821,5.778583 0,1.352268 -0.492285,2.642908 -1.2919,3.688387 l -0.306295,0.430904 0.799097,0.798292 0.430098,-0.491197 c 0.860534,-1.290801 1.413293,-2.827702 1.413293,-4.426386 0,-3.810936 -3.072925,-6.945876 -6.9458755,-6.945876 z M 21.518926,1.822356 c -1.966935,0 -3.380487,1.168592 -3.380487,2.828194 0,1.844001 1.167618,2.458655 3.257488,2.950389 1.844001,0.3688 2.213997,0.799061 2.213997,1.475195 0,0.738149 -0.677064,1.229999 -1.721998,1.229999 -1.229335,0 -2.212486,-0.492032 -3.134487,-1.291097 l -1.045901,1.229195 c 1.168416,1.045483 2.644089,1.537094 4.119289,1.537094 2.028952,0 3.503488,-1.106643 3.503488,-2.951191 0,-1.659602 -1.044874,-2.396754 -3.135291,-2.888488 -1.905468,-0.430266 -2.33539,-0.799495 -2.33539,-1.537096 0,-0.676683 0.614727,-1.168097 1.598194,-1.168097 0.860534,0 1.78221,0.307866 2.643292,0.983999 L 25.085119,3.052355 C 24.101651,2.253288 22.932661,1.822356 21.518926,1.822356 Z m 5.286584,0 v 9.774067 h 1.721194 V 8.461134 h 1.967998 c 2.151334,0 3.933584,-1.167685 3.933584,-3.380487 0,-1.967484 -1.475218,-3.258291 -3.749486,-3.258291 z m 9.098774,0 v 9.835973 h 7.375973 V 10.121231 H 37.624676 V 7.477939 h 4.918387 V 5.941646 H 37.624676 V 3.359452 h 5.594486 V 1.822356 Z m 9.159069,0 v 9.835973 H 52.43933 V 10.121231 H 46.783745 V 7.477939 h 4.918388 V 5.941646 H 46.783745 V 3.359452 H 52.37823 V 1.822356 Z m 9.097973,0 v 9.835973 h 3.687587 c 3.073885,0 5.225484,-2.151584 5.225484,-4.917586 0,-2.76655 -2.151599,-4.918387 -5.225484,-4.918387 z m 9.896265,0 v 1.598999 h 3.136095 v 8.236974 h 1.720393 V 3.421355 h 3.135292 V 1.822356 Z m 9.774876,0 v 9.835973 H 81.20844 V 10.121231 H 75.553661 V 7.477939 h 4.917586 V 5.941646 H 75.553661 V 3.359452 h 5.59368 V 1.822356 Z m 12.601457,0 c -1.967484,0 -3.381289,1.168592 -3.381289,2.828194 0,1.844001 1.16787,2.458655 3.258292,2.950389 1.843998,0.3688 2.213193,0.799061 2.213193,1.475195 0,0.738149 -0.676263,1.229999 -1.721194,1.229999 -1.229883,0 -2.212744,-0.492032 -3.135292,-1.291097 l -1.045096,1.229195 c 1.167866,1.045483 2.582253,1.537161 4.180388,1.660096 2.028401,0 3.503487,-1.10639 3.503487,-2.950389 0,-1.66015 -1.044619,-2.398361 -3.134489,-2.890096 -1.905467,-0.430267 -2.336193,-0.798692 -2.336193,-1.536293 0,-0.676133 0.614727,-1.168097 1.598193,-1.168097 0.860535,0 1.782759,0.307318 2.643293,0.984 L 89.999313,3.052355 C 89.015847,2.253288 87.847659,1.822356 86.433924,1.822356 Z m 4.917586,0 v 1.598999 h 3.135292 v 8.236974 h 1.721196 V 3.421355 h 3.135285 V 1.822356 Z M 28.526704,3.359452 H 30.5558 c 1.352268,0 2.151292,0.61468 2.151292,1.783097 0,1.044934 -0.860491,1.782292 -2.151292,1.782292 h -2.029096 z m 27.416915,0.123001 h 1.967196 c 2.090414,0 3.442388,1.413921 3.442388,3.319389 0,1.905467 -1.351974,3.319389 -3.442388,3.319389 H 55.943619 Z M 9.9625654,4.28155 6.0900795,7.354939 7.4422735,8.707134 10.515662,4.834648 Z"
     id="path14" /></svg>